TITLE ""
FILE "26.mp3" MP3
  TRACK 01 AUDIO
    TITLE "26_01"
    INDEX 01 00:00:00
  TRACK 02 AUDIO
    TITLE "26_02"
    INDEX 01 00:00:18
  TRACK 03 AUDIO
    TITLE "26_03"
    INDEX 01 00:01:69
  TRACK 04 AUDIO
    TITLE "26_04"
    INDEX 01 00:02:31
  TRACK 05 AUDIO
    TITLE "26_05"
    INDEX 01 00:03:32
  TRACK 06 AUDIO
    TITLE "26_06"
    INDEX 01 00:03:69
  TRACK 07 AUDIO
    TITLE "26_07"
    INDEX 01 00:04:65
  TRACK 08 AUDIO
    TITLE "26_08"
    INDEX 01 00:05:31
  TRACK 09 AUDIO
    TITLE "26_09"
    INDEX 01 00:09:35
  TRACK 10 AUDIO
    TITLE "26_10"
    INDEX 01 00:10:05
  TRACK 11 AUDIO
    TITLE "26_11"
    INDEX 01 00:12:35
  TRACK 12 AUDIO
    TITLE "26_12"
    INDEX 01 00:12:74
  TRACK 13 AUDIO
    TITLE "26_13"
    INDEX 01 00:13:74
  TRACK 14 AUDIO
    TITLE "26_14"
    INDEX 01 00:14:40
  TRACK 15 AUDIO
    TITLE "26_15"
    INDEX 01 00:17:66
  TRACK 16 AUDIO
    TITLE "26_16"
    INDEX 01 00:18:32
  TRACK 17 AUDIO
    TITLE "26_17"
    INDEX 01 00:20:37
  TRACK 18 AUDIO
    TITLE "26_18"
    INDEX 01 00:20:74
  TRACK 19 AUDIO
    TITLE "26_19"
    INDEX 01 00:21:69
  TRACK 20 AUDIO
    TITLE "26_20"
    INDEX 01 00:22:33
  TRACK 21 AUDIO
    TITLE "26_21"
    INDEX 01 00:23:31
  TRACK 22 AUDIO
    TITLE "26_22"
    INDEX 01 00:23:72
  TRACK 23 AUDIO
    TITLE "26_23"
    INDEX 01 00:26:14
  TRACK 24 AUDIO
    TITLE "26_24"
    INDEX 01 00:26:55
  TRACK 25 AUDIO
    TITLE "26_25"
    INDEX 01 00:28:16
  TRACK 26 AUDIO
    TITLE "26_26"
    INDEX 01 00:28:58
  TRACK 27 AUDIO
    TITLE "26_27"
    INDEX 01 00:29:57
  TRACK 28 AUDIO
    TITLE "26_28"
    INDEX 01 00:30:23
  TRACK 29 AUDIO
    TITLE "26_29"
    INDEX 01 00:33:10
  TRACK 30 AUDIO
    TITLE "26_30"
    INDEX 01 00:33:49
  TRACK 31 AUDIO
    TITLE "26_31"
    INDEX 01 00:35:30
  TRACK 32 AUDIO
    TITLE "26_32"
    INDEX 01 00:35:71
  TRACK 33 AUDIO
    TITLE "26_33"
    INDEX 01 00:36:69
  TRACK 34 AUDIO
    TITLE "26_34"
    INDEX 01 00:37:33
  TRACK 35 AUDIO
    TITLE "26_35"
    INDEX 01 00:38:30
  TRACK 36 AUDIO
    TITLE "26_36"
    INDEX 01 00:38:72
  TRACK 37 AUDIO
    TITLE "26_37"
    INDEX 01 00:42:48
  TRACK 38 AUDIO
    TITLE "26_38"
    INDEX 01 00:43:12
  TRACK 39 AUDIO
    TITLE "26_39"
    INDEX 01 00:45:42
  TRACK 40 AUDIO
    TITLE "26_40"
    INDEX 01 00:46:06
  TRACK 41 AUDIO
    TITLE "26_41"
    INDEX 01 00:47:04
  TRACK 42 AUDIO
    TITLE "26_42"
    INDEX 01 00:47:45
  TRACK 43 AUDIO
    TITLE "26_43"
    INDEX 01 00:51:25
  TRACK 44 AUDIO
    TITLE "26_44"
    INDEX 01 00:51:68
  TRACK 45 AUDIO
    TITLE "26_45"
    INDEX 01 00:54:31
